<?xml version="1.0" standalone="no"?>
<!DOCTYPE svg PUBLIC "-//W3C//DTD SVG 20010904//EN"
 "http://www.w3.org/TR/2001/REC-SVG-20010904/DTD/svg10.dtd">
<svg version="1.0" xmlns="http://www.w3.org/2000/svg"
 width="55.000000pt" height="49.000000pt" viewBox="0 0 55.000000 49.000000"
 preserveAspectRatio="xMidYMid meet">

<g transform="translate(0.000000,49.000000) scale(0.100000,-0.100000)"
fill="#000000" stroke="none">
<path d="M372 423 c-11 -4 -10 -9 2 -22 14 -16 12 -21 -27 -59 l-43 -42 -29
30 c-16 16 -32 30 -37 30 -13 0 -168 -153 -168 -166 0 -6 7 -17 16 -24 13 -12
25 -4 82 53 l67 67 33 -32 32 -33 63 63 c55 55 65 61 76 48 21 -25 31 -9 31
45 l0 49 -42 -1 c-24 0 -49 -3 -56 -6z"/>
<path d="M403 293 c-21 -14 -23 -23 -23 -124 l0 -109 25 0 25 0 0 125 c0 69
-1 125 -2 124 -2 0 -13 -7 -25 -16z"/>
<path d="M240 157 c0 -97 0 -97 25 -97 24 0 25 2 25 73 0 65 -3 76 -25 97
l-25 23 0 -96z"/>
<path d="M192 217 c-18 -19 -22 -35 -22 -90 0 -65 1 -67 25 -67 25 0 25 1 25
90 0 50 -1 90 -3 90 -2 0 -13 -10 -25 -23z"/>
<path d="M332 224 c-19 -13 -22 -24 -22 -90 0 -72 1 -74 25 -74 25 0 25 1 25
90 0 50 -1 90 -3 90 -1 0 -13 -7 -25 -16z"/>
<path d="M121 146 c-31 -33 -26 -81 9 -81 23 0 25 4 28 53 3 58 -4 63 -37 28z"/>
</g>
</svg>
